<svg width="23" height="24" viewBox="0 0 23 24" fill="none" xmlns="http://www.w3.org/2000/svg">
<path d="M20.7 12L21.7842 13.0842C22.383 12.4854 22.383 11.5146 21.7842 10.9158L20.7 12ZM15.6509 4.78244C15.0521 4.18363 14.0812 4.18363 13.4824 4.78244C12.8836 5.38124 12.8836 6.3521 13.4824 6.9509L15.6509 4.78244ZM13.4824 17.0491C12.8836 17.6479 12.8836 18.6188 13.4824 19.2176C14.0812 19.8164 15.0521 19.8164 15.6509 19.2176L13.4824 17.0491ZM1.53333 10.4667C0.686489 10.4667 -8.10623e-06 11.1532 -8.10623e-06 12C-8.10623e-06 12.8468 0.686489 13.5333 1.53333 13.5333V10.4667ZM21.7842 10.9158L15.6509 4.78244L13.4824 6.9509L19.6158 13.0842L21.7842 10.9158ZM19.6158 10.9158L13.4824 17.0491L15.6509 19.2176L21.7842 13.0842L19.6158 10.9158ZM20.7 10.4667H1.53333V13.5333H20.7V10.4667Z" fill="#F7F7F7"/>
</svg>
