<svg width="56" height="56" viewBox="0 0 56 56" fill="none" xmlns="http://www.w3.org/2000/svg">
<path d="M42.6884 13.3115C41.7799 12.403 40.3069 12.403 39.3984 13.3115L30.6399 22.07C29.182 23.5279 26.8182 23.5279 25.3602 22.07L16.6017 13.3115C15.6932 12.403 14.2203 12.403 13.3117 13.3115C12.4032 14.22 12.4032 15.693 13.3117 16.6015L22.0702 25.36C23.5282 26.8179 23.5282 29.1817 22.0702 30.6397L13.3117 39.3982C12.4032 40.3067 12.4032 41.7797 13.3117 42.6882C14.2203 43.5967 15.6932 43.5967 16.6017 42.6882L25.3602 33.9297C26.8182 32.4717 29.182 32.4717 30.6399 33.9297L39.3984 42.6882C40.3069 43.5967 41.7799 43.5967 42.6884 42.6882C43.5969 41.7797 43.5969 40.3067 42.6884 39.3982L33.9299 30.6397C32.472 29.1817 32.472 26.8179 33.9299 25.36L42.6884 16.6015C43.5969 15.693 43.5969 14.22 42.6884 13.3115Z" fill="#FF4242"/>
</svg>
