<svg width="56" height="56" viewBox="0 0 56 56" fill="none" xmlns="http://www.w3.org/2000/svg">
<path d="M42.6883 13.3115C41.7798 12.403 40.3068 12.403 39.3983 13.3115L30.6398 22.07C29.1819 23.5279 26.8181 23.5279 25.3601 22.07L16.6016 13.3115C15.6931 12.403 14.2201 12.403 13.3116 13.3115V13.3115C12.4031 14.22 12.4031 15.693 13.3116 16.6015L22.0701 25.36C23.5281 26.8179 23.5281 29.1817 22.0701 30.6397L13.3116 39.3982C12.4031 40.3067 12.4031 41.7797 13.3116 42.6882V42.6882C14.2201 43.5967 15.6931 43.5967 16.6016 42.6882L25.3601 33.9297C26.8181 32.4717 29.1819 32.4717 30.6398 33.9297L39.3983 42.6882C40.3068 43.5967 41.7798 43.5967 42.6883 42.6882V42.6882C43.5968 41.7797 43.5968 40.3067 42.6883 39.3982L33.9298 30.6397C32.4719 29.1817 32.4719 26.8179 33.9298 25.36L42.6883 16.6015C43.5968 15.693 43.5968 14.22 42.6883 13.3115V13.3115Z" fill="#FF4242"/>
</svg>
