<svg width="40" height="41" viewBox="0 0 40 41" fill="none" xmlns="http://www.w3.org/2000/svg">
<path d="M4.75146 10.2893H35.2924M8.1449 10.2893V34.0433C8.1449 34.9433 8.50243 35.8065 9.13882 36.4429C9.77521 37.0793 10.6383 37.4368 11.5383 37.4368H28.5055C29.4055 37.4368 30.2687 37.0793 30.9051 36.4429C31.5415 35.8065 31.899 34.9433 31.899 34.0433V10.2893M13.2351 10.2893V6.89583C13.2351 5.99584 13.5926 5.1327 14.229 4.49631C14.8654 3.85992 15.7285 3.5024 16.6285 3.5024H23.4154C24.3154 3.5024 25.1785 3.85992 25.8149 4.49631C26.4513 5.1327 26.8088 5.99584 26.8088 6.89583V10.2893" stroke="#FF6969" stroke-width="3.39344" stroke-linecap="round" stroke-linejoin="round"/>
</svg>
