<svg width="65" height="65" viewBox="0 0 65 65" fill="none" xmlns="http://www.w3.org/2000/svg">
<circle cx="32.5" cy="32.5" r="32.5" fill="white"/>
<path d="M40.4237 48.8843V46.5436C40.4237 46.2363 40.3707 45.9319 40.2677 45.6479C40.1648 45.364 40.014 45.106 39.8239 44.8885C39.6335 44.6712 39.4078 44.4988 39.1594 44.3812C38.9109 44.2636 38.6445 44.203 38.3756 44.203H30.1829C27.467 44.203 24.8623 42.97 22.9419 40.7753C21.0215 38.5805 19.9426 35.6039 19.9425 32.5C19.9425 30.9631 20.2074 29.4413 20.722 28.0214C21.2367 26.6015 21.991 25.3114 22.9419 24.2246C23.8928 23.1379 25.0217 22.2759 26.2641 21.6878C27.5065 21.0996 28.8381 20.797 30.1829 20.797H38.375C38.6439 20.7971 38.9104 20.7366 39.1589 20.619C39.4075 20.5014 39.6334 20.329 39.8235 20.1117C40.0139 19.8943 40.1647 19.6362 40.2677 19.3522C40.3707 19.0682 40.4237 18.7638 40.4237 18.4563V16.1157H30.1833C28.3007 16.1157 26.4364 16.5395 24.6971 17.3629C22.9577 18.1863 21.3773 19.3931 20.0461 20.9145C18.7148 22.436 17.6588 24.2422 16.9384 26.23C16.2179 28.2178 15.8471 30.3484 15.8472 32.5C15.8472 36.8453 17.3576 41.0128 20.0461 44.0854C22.7347 47.158 26.3811 48.8843 30.1833 48.8843H40.4237Z" fill="url(#paint0_linear_179_417)"/>
<path d="M24.0386 32.5C24.0386 34.3623 24.6859 36.1482 25.8381 37.4649C26.9903 38.7818 28.553 39.5216 30.1825 39.5216H40.4236C41.51 39.5216 42.5516 40.0148 43.3198 40.8927C44.0879 41.7706 44.5195 42.9612 44.5195 44.2028V48.8841H48.6157V44.203C48.6157 41.72 47.7526 39.3386 46.2163 37.5827C44.6799 35.827 42.5962 34.8406 40.4236 34.8406H30.1828C29.6396 34.8406 29.1187 34.594 28.7346 34.1551C28.3505 33.7161 28.1347 33.1208 28.1347 32.5C28.1347 31.8792 28.3505 31.2839 28.7346 30.8449C29.1187 30.4059 29.6396 30.1594 30.1828 30.1594H40.4236C42.5962 30.1594 44.6799 29.173 46.2163 27.4172C47.7526 25.6614 48.6157 23.28 48.6157 20.797V16.1157H44.5189V20.797C44.5189 22.0383 44.0875 23.2289 43.3195 24.1068C42.5515 24.9846 41.5098 25.4779 40.4236 25.4781H30.1828C29.3759 25.478 28.5769 25.6596 27.8314 26.0125C27.086 26.3654 26.4086 26.8826 25.8381 27.5346C25.2675 28.1867 24.815 28.9608 24.5062 29.8128C24.1974 30.6647 24.0385 31.5778 24.0386 32.5Z" fill="url(#paint1_linear_179_417)"/>
<defs>
<linearGradient id="paint0_linear_179_417" x1="19.5582" y1="32.5" x2="51.0899" y2="32.5" gradientUnits="userSpaceOnUse">
<stop stop-color="#817696"/>
<stop offset="1" stop-color="#817698"/>
</linearGradient>
<linearGradient id="paint1_linear_179_417" x1="19.541" y1="32.4999" x2="51.098" y2="32.4999" gradientUnits="userSpaceOnUse">
<stop stop-color="#8575D2"/>
<stop offset="1" stop-color="#9083D5"/>
</linearGradient>
</defs>
</svg>
