<svg width="23" height="23" viewBox="0 0 23 23" fill="none" xmlns="http://www.w3.org/2000/svg">
<g clip-path="url(#clip0_179_555)">
<path d="M21.9332 16.0797L17.0394 13.9824C16.8303 13.8933 16.598 13.8745 16.3774 13.9289C16.1567 13.9833 15.9597 14.1079 15.816 14.2839L13.6487 16.9318C10.2475 15.3281 7.51021 12.5909 5.90654 9.18959L8.55442 7.02235C8.7308 6.87889 8.85564 6.68187 8.91004 6.46112C8.96444 6.24037 8.94544 6.0079 8.85591 5.79891L6.75858 0.905153C6.66032 0.679869 6.48653 0.495932 6.26718 0.38506C6.04782 0.274187 5.79666 0.243327 5.55699 0.297803L1.01279 1.34647C0.781718 1.39982 0.575558 1.52993 0.427954 1.71554C0.280351 1.90116 0.20002 2.13132 0.200073 2.36847C0.200073 13.5761 9.28411 22.6426 20.4742 22.6426C20.7114 22.6428 20.9417 22.5625 21.1274 22.4149C21.3131 22.2673 21.4433 22.061 21.4967 21.8299L22.5453 17.2857C22.5994 17.0449 22.5679 16.7927 22.4562 16.5726C22.3445 16.3525 22.1595 16.1782 21.9332 16.0797V16.0797Z" fill="black"/>
</g>
<defs>
<clipPath id="clip0_179_555">
<rect width="22.3715" height="22.3715" fill="white" transform="translate(0.200073 0.271484)"/>
</clipPath>
</defs>
</svg>
