<svg width="23" height="23" viewBox="0 0 23 23" fill="none" xmlns="http://www.w3.org/2000/svg">
<g clip-path="url(#clip0_179_596)">
<path d="M21.933 16.0797L17.0393 13.9824C16.8302 13.8933 16.5979 13.8745 16.3772 13.9289C16.1566 13.9833 15.9596 14.1079 15.8158 14.2839L13.6486 16.9318C10.2473 15.3281 7.51009 12.5909 5.90642 9.18959L8.55429 7.02235C8.73068 6.87889 8.85552 6.68187 8.90992 6.46112C8.96432 6.24037 8.94532 6.0079 8.85578 5.79891L6.75846 0.905153C6.6602 0.679869 6.48641 0.495932 6.26705 0.38506C6.0477 0.274187 5.79654 0.243327 5.55687 0.297803L1.01266 1.34647C0.781596 1.39982 0.575436 1.52993 0.427832 1.71554C0.280229 1.90116 0.199898 2.13132 0.199951 2.36847C0.199951 13.5761 9.28399 22.6426 20.4741 22.6426C20.7113 22.6428 20.9416 22.5625 21.1273 22.4149C21.313 22.2673 21.4432 22.061 21.4965 21.8299L22.5452 17.2857C22.5993 17.0449 22.5678 16.7927 22.4561 16.5726C22.3443 16.3525 22.1594 16.1782 21.933 16.0797V16.0797Z" fill="black"/>
</g>
<defs>
<clipPath id="clip0_179_596">
<rect width="22.3715" height="22.3715" fill="white" transform="translate(0.199951 0.271484)"/>
</clipPath>
</defs>
</svg>
