<svg width="58" height="57" viewBox="0 0 58 57" fill="none" xmlns="http://www.w3.org/2000/svg">
<path d="M43.1485 56.6498V52.6074C43.1485 52.0765 43.0569 51.5508 42.8792 51.0603C42.7015 50.5701 42.441 50.1244 42.1126 49.7488C41.7839 49.3735 41.3939 49.0758 40.965 48.8726C40.5358 48.6695 40.0758 48.5649 39.6113 48.5649H25.4619C20.7714 48.5649 16.273 46.4355 12.9563 42.645C9.63961 38.8545 7.77628 33.7137 7.7762 28.353C7.7762 25.6987 8.23367 23.0705 9.12246 20.6182C10.0113 18.166 11.314 15.9378 12.9563 14.061C14.5985 12.1841 16.5482 10.6953 18.6939 9.67961C20.8396 8.66387 23.1394 8.14112 25.4619 8.14115H39.6103C40.0747 8.1413 40.535 8.03686 40.9642 7.8338C41.3934 7.63071 41.7836 7.33297 42.112 6.95758C42.4407 6.58217 42.7012 6.13648 42.8792 5.64596C43.0569 5.15543 43.1485 4.62968 43.1485 4.09871V0.0562744H25.4627C22.2113 0.0562744 18.9916 0.788194 15.9876 2.21024C12.9836 3.63229 10.2542 5.71663 7.95505 8.34421C5.65591 10.9718 3.83213 14.0912 2.58787 17.5244C1.34361 20.9575 0.703212 24.6371 0.703247 28.353C0.703247 35.8577 3.31181 43.0552 7.9551 48.3618C12.5984 53.6685 18.8961 56.6498 25.4627 56.6498H43.1485Z" fill="url(#paint0_linear_179_561)"/>
<path d="M14.8505 28.3529C14.8505 31.5692 15.9684 34.6537 17.9584 36.9277C19.9483 39.2021 22.6472 40.4796 25.4614 40.4796H43.1484C45.0247 40.4796 46.8238 41.3315 48.1504 42.8477C49.4771 44.3638 50.2225 46.4202 50.2225 48.5645V56.6494H57.2968V48.5648C57.2968 44.2765 55.8062 40.1637 53.1529 37.1311C50.4994 34.0989 46.9007 32.3954 43.1484 32.3954H25.4619C24.5238 32.3954 23.6241 31.9694 22.9608 31.2115C22.2974 30.4533 21.9248 29.425 21.9248 28.3529C21.9248 27.2808 22.2974 26.2526 22.9608 25.4945C23.6241 24.7364 24.5238 24.3105 25.4619 24.3105H43.1484C46.9007 24.3105 50.4994 22.6069 53.1529 19.5745C55.8062 16.5422 57.2968 12.4294 57.2968 8.14103V0.0561523H50.2214V8.14103C50.2214 10.285 49.4763 12.3411 48.1499 13.8573C46.8235 15.3734 45.0245 16.2253 43.1484 16.2256H25.4619C24.0684 16.2255 22.6885 16.5391 21.401 17.1486C20.1136 17.758 18.9437 18.6513 17.9584 19.7774C16.973 20.9036 16.1914 22.2405 15.6581 23.7119C15.1249 25.1833 14.8504 26.7603 14.8505 28.3529Z" fill="url(#paint1_linear_179_561)"/>
<defs>
<linearGradient id="paint0_linear_179_561" x1="7.11247" y1="28.353" x2="61.5698" y2="28.353" gradientUnits="userSpaceOnUse">
<stop stop-color="#817696"/>
<stop offset="1" stop-color="#817698"/>
</linearGradient>
<linearGradient id="paint1_linear_179_561" x1="7.08284" y1="28.3528" x2="61.5838" y2="28.3528" gradientUnits="userSpaceOnUse">
<stop stop-color="#8575D2"/>
<stop offset="1" stop-color="#9083D5"/>
</linearGradient>
</defs>
</svg>
