<svg width="58" height="57" viewBox="0 0 58 57" fill="none" xmlns="http://www.w3.org/2000/svg">
<path d="M43.1483 56.6497V52.6072C43.1483 52.0764 43.0568 51.5507 42.8791 51.0602C42.7014 50.57 42.4409 50.1243 42.1124 49.7487C41.7838 49.3734 41.3938 49.0756 40.9649 48.8725C40.5357 48.6694 40.0757 48.5648 39.6112 48.5648H25.4618C20.7713 48.5648 16.2729 46.4354 12.9562 42.6449C9.63949 38.8543 7.77616 33.7135 7.77608 28.3529C7.77608 25.6986 8.23355 23.0703 9.12234 20.6181C10.0111 18.1658 11.3139 15.9377 12.9561 14.0608C14.5984 12.184 16.5481 10.6952 18.6938 9.67948C20.8395 8.66375 23.1393 8.141 25.4618 8.14103H39.6101C40.0746 8.14118 40.5349 8.03674 40.9641 7.83368C41.3933 7.63059 41.7835 7.33284 42.1119 6.95746C42.4406 6.58205 42.7011 6.13636 42.8791 5.64584C43.0568 5.15531 43.1483 4.62956 43.1483 4.09859V0.0561523H25.4626C22.2111 0.0561523 18.9915 0.788072 15.9875 2.21012C12.9835 3.63217 10.254 5.71651 7.95493 8.34409C5.65578 10.9717 3.83201 14.0911 2.58775 17.5243C1.34349 20.9574 0.70309 24.637 0.703125 28.3529C0.703125 35.8575 3.31169 43.055 7.95498 48.3617C12.5983 53.6683 18.896 56.6497 25.4626 56.6497H43.1483Z" fill="url(#paint0_linear_179_73)"/>
<path d="M14.8506 28.3529C14.8506 31.5692 15.9685 34.6537 17.9585 36.9277C19.9484 39.2021 22.6473 40.4796 25.4615 40.4796H43.1485C45.0248 40.4796 46.8239 41.3315 48.1505 42.8477C49.4771 44.3638 50.2226 46.4202 50.2226 48.5645V56.6494H57.2969V48.5648C57.2969 44.2765 55.8063 40.1637 53.153 37.1311C50.4995 34.0989 46.9008 32.3954 43.1485 32.3954H25.462C24.5239 32.3954 23.6242 31.9694 22.9609 31.2115C22.2975 30.4533 21.9249 29.425 21.9249 28.3529C21.9249 27.2808 22.2975 26.2526 22.9609 25.4945C23.6242 24.7364 24.5239 24.3105 25.462 24.3105H43.1485C46.9008 24.3105 50.4995 22.6069 53.153 19.5745C55.8063 16.5422 57.2969 12.4294 57.2969 8.14103V0.0561523H50.2215V8.14103C50.2215 10.285 49.4763 12.3411 48.15 13.8573C46.8236 15.3734 45.0245 16.2253 43.1485 16.2256H25.462C24.0685 16.2255 22.6886 16.5391 21.4011 17.1486C20.1136 17.758 18.9438 18.6513 17.9585 19.7774C16.9731 20.9036 16.1915 22.2405 15.6582 23.7119C15.125 25.1833 14.8505 26.7603 14.8506 28.3529Z" fill="url(#paint1_linear_179_73)"/>
<defs>
<linearGradient id="paint0_linear_179_73" x1="7.11234" y1="28.3529" x2="61.5697" y2="28.3529" gradientUnits="userSpaceOnUse">
<stop stop-color="#817696"/>
<stop offset="1" stop-color="#817698"/>
</linearGradient>
<linearGradient id="paint1_linear_179_73" x1="7.08293" y1="28.3528" x2="61.5839" y2="28.3528" gradientUnits="userSpaceOnUse">
<stop stop-color="#8575D2"/>
<stop offset="1" stop-color="#9083D5"/>
</linearGradient>
</defs>
</svg>
