<svg width="95" height="95" viewBox="0 0 95 95" fill="none" xmlns="http://www.w3.org/2000/svg">
<g clip-path="url(#clip0_153_357)">
<path fill-rule="evenodd" clip-rule="evenodd" d="M0 47.5C0 34.9022 5.00445 22.8204 13.9124 13.9124C22.8204 5.00445 34.9022 0 47.5 0C60.0978 0 72.1796 5.00445 81.0876 13.9124C89.9956 22.8204 95 34.9022 95 47.5C95 60.0978 89.9956 72.1796 81.0876 81.0876C72.1796 89.9956 60.0978 95 47.5 95C34.9022 95 22.8204 89.9956 13.9124 81.0876C5.00445 72.1796 0 60.0978 0 47.5ZM43.2216 66.5298C44.0823 67.2471 45.3642 67.1175 46.064 66.2426L70.161 36.113C71.2522 34.7486 71.0309 32.758 69.6666 31.6666V31.6666C68.3024 30.5753 66.3119 30.7963 65.2203 32.1603L45.1519 57.2376C44.4521 58.1121 43.1706 58.2415 42.3101 57.5245L29.7921 47.0945C28.4489 45.9753 26.4527 46.1568 25.3334 47.5V47.5C24.214 48.8432 24.3954 50.8394 25.7386 51.9588L43.2216 66.5298Z" fill="#72D05B"/>
</g>
<defs>
<clipPath id="clip0_153_357">
<rect width="95" height="95" fill="white"/>
</clipPath>
</defs>
</svg>
