<svg width="23" height="23" viewBox="0 0 23 23" fill="none" xmlns="http://www.w3.org/2000/svg">
<path d="M11.3857 17.093C10.6634 17.093 9.94115 16.7771 9.32506 16.137L0.199951 6.67628V19.8894C0.199951 21.4333 1.13894 22.6859 2.29728 22.6859H20.4741C21.6324 22.6859 22.5714 21.4339 22.5714 19.8894V6.67628L13.4481 16.1434C12.832 16.7784 12.1066 17.093 11.3857 17.093ZM0.911731 5.05085L10.1837 14.6694C10.8911 15.4035 11.882 15.4035 12.5895 14.6694L21.8614 5.05085C22.2699 4.58478 22.5714 3.86819 22.5714 3.11083C22.5714 1.56638 21.632 0.314392 20.4741 0.314392H2.29728C1.13894 0.314392 0.199951 1.56638 0.199951 3.11083C0.199951 3.86819 0.462554 4.58478 0.911731 5.05085Z" fill="black"/>
</svg>
