<svg width="23" height="23" viewBox="0 0 23 23" fill="none" xmlns="http://www.w3.org/2000/svg">
<path d="M11.3854 17.0931C10.6632 17.0931 9.94091 16.7772 9.32482 16.137L0.199707 6.67634V19.8895C0.199707 21.4333 1.1387 22.6859 2.29703 22.6859H20.4738C21.6322 22.6859 22.5712 21.4339 22.5712 19.8895V6.67634L13.4478 16.1434C12.8317 16.7785 12.1064 17.0931 11.3854 17.0931ZM0.911487 5.05091L10.1834 14.6695C10.8908 15.4035 11.8818 15.4035 12.5892 14.6695L21.8611 5.05091C22.2697 4.58484 22.5712 3.86825 22.5712 3.11089C22.5712 1.56644 21.6317 0.314453 20.4738 0.314453H2.29703C1.1387 0.314453 0.199707 1.56644 0.199707 3.11089C0.199707 3.86825 0.46231 4.58484 0.911487 5.05091Z" fill="black"/>
</svg>
