<svg width="23" height="23" viewBox="0 0 23 23" fill="none" xmlns="http://www.w3.org/2000/svg">
<path d="M11.3854 17.093C10.6632 17.093 9.94091 16.7771 9.32482 16.137L0.199707 6.67628V19.8894C0.199707 21.4333 1.1387 22.6859 2.29703 22.6859H20.4738C21.6322 22.6859 22.5712 21.4339 22.5712 19.8894V6.67628L13.4478 16.1434C12.8317 16.7784 12.1064 17.093 11.3854 17.093ZM0.911487 5.05085L10.1834 14.6694C10.8908 15.4035 11.8818 15.4035 12.5892 14.6694L21.8611 5.05085C22.2697 4.58478 22.5712 3.86819 22.5712 3.11083C22.5712 1.56638 21.6317 0.314392 20.4738 0.314392H2.29703C1.1387 0.314392 0.199707 1.56638 0.199707 3.11083C0.199707 3.86819 0.46231 4.58478 0.911487 5.05085Z" fill="black"/>
</svg>
