<svg width="23" height="24" viewBox="0 0 23 24" fill="none" xmlns="http://www.w3.org/2000/svg">
<path d="M20.7 12L21.7842 13.0842C22.383 12.4854 22.383 11.5145 21.7842 10.9157L20.7 12ZM15.6509 4.78241C15.0521 4.1836 14.0812 4.1836 13.4824 4.78241C12.8836 5.38121 12.8836 6.35206 13.4824 6.95087L15.6509 4.78241ZM13.4824 17.0491C12.8836 17.6479 12.8836 18.6187 13.4824 19.2175C14.0812 19.8163 15.0521 19.8163 15.6509 19.2175L13.4824 17.0491ZM1.53333 10.4666C0.686489 10.4666 -8.10623e-06 11.1531 -8.10623e-06 12C-8.10623e-06 12.8468 0.686489 13.5333 1.53333 13.5333V10.4666ZM21.7842 10.9157L15.6509 4.78241L13.4824 6.95087L19.6158 13.0842L21.7842 10.9157ZM19.6158 10.9157L13.4824 17.0491L15.6509 19.2175L21.7842 13.0842L19.6158 10.9157ZM20.7 10.4666H1.53333V13.5333H20.7V10.4666Z" fill="#F7F7F7"/>
</svg>
