<svg width="43" height="42" viewBox="0 0 43 42" fill="none" xmlns="http://www.w3.org/2000/svg">
<path d="M33.75 38.5H9.25C8.32174 38.5 7.4315 38.1313 6.77513 37.4749C6.11875 36.8185 5.75 35.9283 5.75 35V10.5C5.75 9.57174 6.11875 8.6815 6.77513 8.02513C7.4315 7.36875 8.32174 7 9.25 7H12.75V3.5H16.25V7H26.75V3.5H30.25V7H33.75C34.6783 7 35.5685 7.36875 36.2249 8.02513C36.8813 8.6815 37.25 9.57174 37.25 10.5V35C37.25 35.9283 36.8813 36.8185 36.2249 37.4749C35.5685 38.1313 34.6783 38.5 33.75 38.5ZM9.25 17.5V35H33.75V17.5H9.25ZM9.25 10.5V14H33.75V10.5H9.25ZM30.25 31.5H26.75V28H30.25V31.5ZM23.25 31.5H19.75V28H23.25V31.5ZM16.25 31.5H12.75V28H16.25V31.5ZM30.25 24.5H26.75V21H30.25V24.5ZM23.25 24.5H19.75V21H23.25V24.5ZM16.25 24.5H12.75V21H16.25V24.5Z" fill="#5871FF"/>
</svg>
