<svg width="42" height="42" viewBox="0 0 42 42" fill="none" xmlns="http://www.w3.org/2000/svg">
<path d="M33.25 38.5H8.75C7.82174 38.5 6.9315 38.1313 6.27513 37.4749C5.61875 36.8185 5.25 35.9283 5.25 35V10.5C5.25 9.57174 5.61875 8.6815 6.27513 8.02513C6.9315 7.36875 7.82174 7 8.75 7H12.25V3.5H15.75V7H26.25V3.5H29.75V7H33.25C34.1783 7 35.0685 7.36875 35.7249 8.02513C36.3813 8.6815 36.75 9.57174 36.75 10.5V35C36.75 35.9283 36.3813 36.8185 35.7249 37.4749C35.0685 38.1313 34.1783 38.5 33.25 38.5ZM8.75 17.5V35H33.25V17.5H8.75ZM8.75 10.5V14H33.25V10.5H8.75ZM29.75 31.5H26.25V28H29.75V31.5ZM22.75 31.5H19.25V28H22.75V31.5ZM15.75 31.5H12.25V28H15.75V31.5ZM29.75 24.5H26.25V21H29.75V24.5ZM22.75 24.5H19.25V21H22.75V24.5ZM15.75 24.5H12.25V21H15.75V24.5Z" fill="#5871FF"/>
</svg>
