<svg width="65" height="65" viewBox="0 0 65 65" fill="none" xmlns="http://www.w3.org/2000/svg">
<circle cx="32.5" cy="32.5" r="32.5" fill="white"/>
<path d="M40.5765 48.77V46.4293C40.5765 46.1219 40.5235 45.8175 40.4206 45.5334C40.3177 45.2496 40.1668 44.9915 39.9767 44.774C39.7864 44.5567 39.5606 44.3843 39.3122 44.2667C39.0637 44.1491 38.7974 44.0885 38.5284 44.0885H30.3357C27.6198 44.0885 25.0152 42.8555 23.0947 40.6606C21.1743 38.4658 20.0954 35.489 20.0954 32.385C20.0954 30.8481 20.3602 29.3262 20.8749 27.9062C21.3895 26.4863 22.1438 25.1961 23.0947 24.1093C24.0456 23.0225 25.1745 22.1605 26.4169 21.5723C27.6593 20.9842 28.9909 20.6815 30.3357 20.6815H38.5278C38.7968 20.6816 39.0632 20.6211 39.3118 20.5035C39.5603 20.3859 39.7862 20.2135 39.9764 19.9961C40.1667 19.7788 40.3175 19.5207 40.4206 19.2367C40.5235 18.9526 40.5765 18.6482 40.5765 18.3407V16H30.3362C28.4535 16 26.5893 16.4238 24.8499 17.2472C23.1106 18.0707 21.5301 19.2776 20.1989 20.7991C18.8677 22.3206 17.8117 24.1268 17.0912 26.1148C16.3708 28.1027 16 30.2333 16 32.385C16 36.7305 17.5104 40.8981 20.1989 43.9709C22.8875 47.0437 26.534 48.77 30.3362 48.77H40.5765Z" fill="url(#paint0_linear_179_28)"/>
<path d="M24.1914 32.385C24.1914 34.2474 24.8387 36.0334 25.9909 37.3502C27.1431 38.6671 28.7058 39.4069 30.3353 39.4069H40.5764C41.6628 39.4069 42.7045 39.9002 43.4726 40.7781C44.2408 41.656 44.6724 42.8467 44.6724 44.0883V48.7698H48.7685V44.0885C48.7685 41.6054 47.9054 39.2239 46.3692 37.468C44.8327 35.7121 42.749 34.7257 40.5764 34.7257H30.3356C29.7924 34.7257 29.2715 34.4791 28.8874 34.0402C28.5033 33.6012 28.2875 33.0058 28.2875 32.385C28.2875 31.7642 28.5033 31.1688 28.8874 30.7298C29.2715 30.2909 29.7924 30.0443 30.3356 30.0443H40.5764C42.749 30.0443 44.8327 29.0578 46.3692 27.302C47.9054 25.5461 48.7685 23.1646 48.7685 20.6815V16H44.6718V20.6815C44.6718 21.9229 44.2403 23.1135 43.4723 23.9914C42.7043 24.8693 41.6626 25.3626 40.5764 25.3628H30.3356C29.5287 25.3627 28.7297 25.5443 27.9843 25.8972C27.2388 26.2501 26.5615 26.7674 25.9909 27.4194C25.4204 28.0715 24.9678 28.8457 24.659 29.6977C24.3503 30.5497 24.1914 31.4628 24.1914 32.385Z" fill="url(#paint1_linear_179_28)"/>
<defs>
<linearGradient id="paint0_linear_179_28" x1="19.711" y1="32.385" x2="51.2427" y2="32.385" gradientUnits="userSpaceOnUse">
<stop stop-color="#817696"/>
<stop offset="1" stop-color="#817698"/>
</linearGradient>
<linearGradient id="paint1_linear_179_28" x1="19.6938" y1="32.3849" x2="51.2508" y2="32.3849" gradientUnits="userSpaceOnUse">
<stop stop-color="#8575D2"/>
<stop offset="1" stop-color="#9083D5"/>
</linearGradient>
</defs>
</svg>
