<svg width="23" height="23" viewBox="0 0 23 23" fill="none" xmlns="http://www.w3.org/2000/svg">
<g clip-path="url(#clip0_179_148)">
<path d="M21.9328 16.0797L17.039 13.9823C16.83 13.8933 16.5976 13.8745 16.377 13.9289C16.1563 13.9832 15.9593 14.1078 15.8156 14.2838L13.6484 16.9317C10.2471 15.328 7.50985 12.5908 5.90618 9.18953L8.55405 7.02229C8.73043 6.87883 8.85528 6.68181 8.90968 6.46106C8.96408 6.24031 8.94507 6.00784 8.85554 5.79885L6.75822 0.905092C6.65995 0.679808 6.48616 0.495871 6.26681 0.384999C6.04746 0.274126 5.79629 0.243266 5.55662 0.297742L1.01242 1.3464C0.781352 1.39976 0.575192 1.52987 0.427588 1.71548C0.279984 1.9011 0.199654 2.13126 0.199707 2.36841C0.199707 13.576 9.28374 22.6426 20.4738 22.6426C20.7111 22.6427 20.9413 22.5624 21.127 22.4148C21.3127 22.2672 21.4429 22.061 21.4963 21.8298L22.545 17.2856C22.5991 17.0448 22.5676 16.7926 22.4558 16.5725C22.3441 16.3524 22.1592 16.1781 21.9328 16.0797V16.0797Z" fill="black"/>
</g>
<defs>
<clipPath id="clip0_179_148">
<rect width="22.3715" height="22.3715" fill="white" transform="translate(0.199707 0.271484)"/>
</clipPath>
</defs>
</svg>
