<svg width="23" height="23" viewBox="0 0 23 23" fill="none" xmlns="http://www.w3.org/2000/svg">
<g clip-path="url(#clip0_179_515)">
<path d="M21.9328 16.0797L17.039 13.9824C16.83 13.8933 16.5976 13.8745 16.377 13.9289C16.1563 13.9833 15.9593 14.1079 15.8156 14.2839L13.6484 16.9318C10.2471 15.3281 7.50985 12.5909 5.90618 9.18959L8.55405 7.02235C8.73043 6.87889 8.85528 6.68187 8.90968 6.46112C8.96408 6.24037 8.94507 6.0079 8.85554 5.79891L6.75822 0.905153C6.65995 0.679869 6.48616 0.495932 6.26681 0.38506C6.04746 0.274187 5.79629 0.243327 5.55662 0.297803L1.01242 1.34647C0.781352 1.39982 0.575192 1.52993 0.427588 1.71554C0.279984 1.90116 0.199654 2.13132 0.199707 2.36847C0.199707 13.5761 9.28374 22.6426 20.4738 22.6426C20.7111 22.6428 20.9413 22.5625 21.127 22.4149C21.3127 22.2673 21.4429 22.061 21.4963 21.8299L22.545 17.2857C22.5991 17.0449 22.5676 16.7927 22.4558 16.5726C22.3441 16.3525 22.1592 16.1782 21.9328 16.0797Z" fill="black"/>
</g>
<defs>
<clipPath id="clip0_179_515">
<rect width="22.3715" height="22.3715" fill="white" transform="translate(0.199707 0.271484)"/>
</clipPath>
</defs>
</svg>
