<svg width="58" height="57" viewBox="0 0 58 57" fill="none" xmlns="http://www.w3.org/2000/svg">
<path d="M43.1483 56.6498V52.6074C43.1483 52.0765 43.0568 51.5508 42.8791 51.0603C42.7014 50.5701 42.4409 50.1244 42.1124 49.7488C41.7838 49.3735 41.3938 49.0758 40.9649 48.8726C40.5357 48.6695 40.0757 48.5649 39.6112 48.5649H25.4618C20.7713 48.5649 16.2729 46.4355 12.9562 42.645C9.63949 38.8545 7.77616 33.7137 7.77608 28.353C7.77608 25.6987 8.23355 23.0705 9.12234 20.6182C10.0111 18.166 11.3139 15.9378 12.9561 14.061C14.5984 12.1841 16.5481 10.6953 18.6938 9.67961C20.8395 8.66387 23.1393 8.14112 25.4618 8.14115H39.6101C40.0746 8.1413 40.5349 8.03686 40.9641 7.8338C41.3933 7.63071 41.7835 7.33297 42.1119 6.95758C42.4406 6.58217 42.7011 6.13649 42.8791 5.64596C43.0568 5.15543 43.1483 4.62968 43.1483 4.09871V0.0562744H25.4626C22.2111 0.0562744 18.9915 0.788194 15.9875 2.21024C12.9835 3.63229 10.254 5.71663 7.95493 8.34421C5.65579 10.9718 3.83201 14.0912 2.58775 17.5244C1.34349 20.9575 0.70309 24.6371 0.703125 28.353C0.703125 35.8577 3.31169 43.0552 7.95498 48.3618C12.5983 53.6685 18.896 56.6498 25.4626 56.6498H43.1483Z" fill="url(#paint0_linear_179_480)"/>
<path d="M14.8506 28.3529C14.8506 31.5692 15.9685 34.6537 17.9585 36.9277C19.9484 39.2021 22.6473 40.4796 25.4615 40.4796H43.1485C45.0248 40.4796 46.8239 41.3315 48.1505 42.8477C49.4771 44.3638 50.2226 46.4202 50.2226 48.5645V56.6494H57.2969V48.5648C57.2969 44.2765 55.8063 40.1637 53.153 37.1311C50.4995 34.0989 46.9008 32.3954 43.1485 32.3954H25.462C24.5239 32.3954 23.6242 31.9694 22.9609 31.2115C22.2975 30.4533 21.9249 29.425 21.9249 28.3529C21.9249 27.2808 22.2975 26.2526 22.9609 25.4945C23.6242 24.7364 24.5239 24.3105 25.462 24.3105H43.1485C46.9008 24.3105 50.4995 22.6069 53.153 19.5745C55.8063 16.5422 57.2969 12.4294 57.2969 8.14103V0.0561523H50.2215V8.14103C50.2215 10.285 49.4763 12.3411 48.15 13.8573C46.8236 15.3734 45.0245 16.2253 43.1485 16.2256H25.462C24.0685 16.2255 22.6886 16.5391 21.4011 17.1486C20.1136 17.758 18.9438 18.6513 17.9585 19.7774C16.9731 20.9036 16.1915 22.2405 15.6582 23.7119C15.125 25.1833 14.8505 26.7603 14.8506 28.3529Z" fill="url(#paint1_linear_179_480)"/>
<defs>
<linearGradient id="paint0_linear_179_480" x1="7.11234" y1="28.353" x2="61.5697" y2="28.353" gradientUnits="userSpaceOnUse">
<stop stop-color="#817696"/>
<stop offset="1" stop-color="#817698"/>
</linearGradient>
<linearGradient id="paint1_linear_179_480" x1="7.08293" y1="28.3528" x2="61.5839" y2="28.3528" gradientUnits="userSpaceOnUse">
<stop stop-color="#8575D2"/>
<stop offset="1" stop-color="#9083D5"/>
</linearGradient>
</defs>
</svg>
