<svg width="23" height="23" viewBox="0 0 23 23" fill="none" xmlns="http://www.w3.org/2000/svg">
<path d="M11.3858 17.093C10.6635 17.093 9.94127 16.7771 9.32518 16.137L0.200073 6.67628V19.8894C0.200073 21.4333 1.13906 22.6859 2.2974 22.6859H20.4742C21.6325 22.6859 22.5715 21.4339 22.5715 19.8894V6.67628L13.4482 16.1434C12.8321 16.7784 12.1068 17.093 11.3858 17.093ZM0.911853 5.05085L10.1838 14.6694C10.8912 15.4035 11.8822 15.4035 12.5896 14.6694L21.8615 5.05085C22.27 4.58478 22.5715 3.86819 22.5715 3.11083C22.5715 1.56638 21.6321 0.314392 20.4742 0.314392H2.2974C1.13906 0.314392 0.200073 1.56638 0.200073 3.11083C0.200073 3.86819 0.462676 4.58478 0.911853 5.05085Z" fill="black"/>
</svg>
