<svg width="41" height="41" viewBox="0 0 41 41" fill="none" xmlns="http://www.w3.org/2000/svg">
<path d="M8.2763 34.7095C8.04601 34.7091 7.81833 34.6608 7.60772 34.5676C7.39712 34.4745 7.20821 34.3385 7.053 34.1684C6.89498 33.9997 6.7744 33.7995 6.69917 33.581C6.62394 33.3624 6.59575 33.1305 6.61646 32.9003L7.02312 28.4287L25.8091 9.64927L31.68 15.5184L12.8989 34.2962L8.42734 34.7028C8.37713 34.7075 8.32672 34.7097 8.2763 34.7095ZM32.8518 14.3449L26.9826 8.47577L30.5032 4.95525C30.6573 4.80093 30.8404 4.6785 31.0419 4.59497C31.2434 4.51144 31.4594 4.46844 31.6775 4.46844C31.8956 4.46844 32.1116 4.51144 32.3131 4.59497C32.5146 4.6785 32.6977 4.80093 32.8518 4.95525L36.3723 8.47577C36.5267 8.62992 36.6491 8.81298 36.7326 9.01448C36.8162 9.21598 36.8592 9.43197 36.8592 9.6501C36.8592 9.86823 36.8162 10.0842 36.7326 10.2857C36.6491 10.4872 36.5267 10.6703 36.3723 10.8244L32.8535 14.3433L32.8518 14.3449Z" fill="#202F66"/>
</svg>
