<svg width="28" height="29" viewBox="0 0 28 29" fill="none" xmlns="http://www.w3.org/2000/svg">
<g clip-path="url(#clip0_179_44)">
<path d="M21.0362 19.8865L25.2075 24.0568C25.6634 24.5126 25.6634 25.2517 25.2076 25.7076C24.7517 26.1634 24.0126 26.1634 23.5568 25.7075L19.3865 21.5362C17.5277 23.0263 15.2157 23.8367 12.8333 23.8333C7.03733 23.8333 2.33333 19.1293 2.33333 13.3333C2.33333 7.53733 7.03733 2.83333 12.8333 2.83333C18.6293 2.83333 23.3333 7.53733 23.3333 13.3333C23.3367 15.7157 22.5263 18.0277 21.0362 19.8865ZM18.6958 19.0208C20.1765 17.4982 21.0033 15.4572 21 13.3333C21 8.82067 17.3448 5.16667 12.8333 5.16667C8.32067 5.16667 4.66667 8.82067 4.66667 13.3333C4.66667 17.8448 8.32067 21.5 12.8333 21.5C14.9572 21.5033 16.9982 20.6765 18.5208 19.1958L18.6958 19.0208Z" fill="#717171"/>
</g>
<defs>
<clipPath id="clip0_179_44">
<rect width="28" height="28" fill="white" transform="translate(0 0.5)"/>
</clipPath>
</defs>
</svg>
